<?xml version="1.0" encoding="UTF-8"?>
<svg xmlns="http://www.w3.org/2000/svg" xmlns:xlink="http://www.w3.org/1999/xlink" width="16pt" height="16pt" viewBox="0 0 16 16" version="1.1">
<g id="surface1">
<path style=" stroke:none;fill-rule:nonzero;fill:rgb(100%,24.313725%,0%);fill-opacity:1;" d="M 14.972656 2.121094 C 13.195312 -0.00390625 9.65625 -0.628906 7.109375 0.710938 L 2.625 3.097656 C 1.402344 3.734375 0.554688 4.777344 0.308594 5.953125 C 0.0976562 6.945312 0.277344 7.960938 0.847656 8.839844 C 0.457031 9.328125 0.195312 9.871094 0.0820312 10.4375 C -0.179688 11.644531 0.164062 12.890625 1.011719 13.878906 C 2.804688 16.003906 6.328125 16.628906 8.871094 15.289062 L 13.359375 12.917969 C 14.582031 12.28125 15.429688 11.238281 15.671875 10.058594 C 15.886719 9.070312 15.707031 8.054688 15.136719 7.171875 C 15.527344 6.6875 15.789062 6.144531 15.902344 5.574219 C 16.179688 4.355469 15.835938 3.109375 14.972656 2.121094 "/>
<path style=" stroke:none;fill-rule:nonzero;fill:rgb(100%,100%,100%);fill-opacity:1;" d="M 6.671875 14.082031 C 5.21875 14.394531 3.703125 13.917969 2.855469 12.902344 C 2.332031 12.308594 2.136719 11.5625 2.285156 10.832031 C 2.316406 10.710938 2.347656 10.601562 2.382812 10.480469 L 2.460938 10.261719 L 2.691406 10.398438 C 3.230469 10.722656 3.816406 10.964844 4.453125 11.128906 L 4.617188 11.167969 L 4.597656 11.304688 C 4.582031 11.496094 4.648438 11.699219 4.777344 11.859375 C 5.039062 12.171875 5.496094 12.320312 5.9375 12.226562 C 6.035156 12.199219 6.132812 12.171875 6.214844 12.132812 L 10.683594 9.761719 C 10.910156 9.640625 11.058594 9.464844 11.105469 9.246094 C 11.15625 9.03125 11.089844 8.800781 10.945312 8.625 C 10.683594 8.3125 10.226562 8.175781 9.785156 8.269531 C 9.6875 8.296875 9.589844 8.324219 9.507812 8.367188 L 7.796875 9.273438 C 7.519531 9.421875 7.207031 9.53125 6.882812 9.597656 C 5.429688 9.910156 3.914062 9.4375 3.066406 8.417969 C 2.5625 7.824219 2.347656 7.078125 2.511719 6.347656 C 2.660156 5.644531 3.179688 5.007812 3.914062 4.628906 L 8.398438 2.257812 C 8.675781 2.109375 8.988281 2 9.3125 1.917969 C 10.765625 1.605469 12.28125 2.082031 13.128906 3.097656 C 13.652344 3.691406 13.847656 4.4375 13.699219 5.167969 C 13.667969 5.289062 13.636719 5.398438 13.585938 5.519531 L 13.503906 5.738281 L 13.277344 5.601562 C 12.738281 5.277344 12.152344 5.035156 11.515625 4.871094 L 11.351562 4.832031 L 11.367188 4.695312 C 11.382812 4.503906 11.320312 4.300781 11.1875 4.140625 C 10.925781 3.828125 10.472656 3.691406 10.03125 3.789062 C 9.933594 3.8125 9.835938 3.839844 9.753906 3.882812 L 5.285156 6.253906 C 5.054688 6.375 4.910156 6.550781 4.859375 6.765625 C 4.8125 6.984375 4.875 7.214844 5.023438 7.390625 C 5.285156 7.703125 5.742188 7.835938 6.179688 7.742188 C 6.28125 7.714844 6.378906 7.6875 6.457031 7.648438 L 8.171875 6.742188 C 8.449219 6.589844 8.757812 6.484375 9.085938 6.402344 C 10.535156 6.089844 12.054688 6.5625 12.902344 7.582031 C 13.421875 8.175781 13.617188 8.921875 13.472656 9.652344 C 13.324219 10.355469 12.804688 10.992188 12.070312 11.371094 L 7.585938 13.742188 C 7.308594 13.890625 6.996094 14 6.671875 14.082031 "/>
</g>
</svg>
